<svg width="14" height="14" fill="none" xmlns="http://www.w3.org/2000/svg"><path d="M6.526 4.929a35.031 35.031 0 00-2.173-3.37 5.861 5.861 0 00-3.227 4.084c.153.003 2.59.032 5.4-.714zm.728 1.965c.076-.025.154-.048.23-.07a19.541 19.541 0 00-.475-.994c-3.01.902-5.902.836-6.004.833-.002.062-.004.124-.004.186a5.83 5.83 0 001.497 3.905s1.6-2.84 4.756-3.86zm-4 4.566v-.003c-.042-.034-.088-.064-.131-.1l.13.103zM5.448 1.17a.106.106 0 01-.016.004l.016-.004zm5.264 1.29a5.822 5.822 0 00-5.24-1.296 29.975 29.975 0 012.186 3.412c2.205-.826 3.038-2.092 3.054-2.117zM6.848 13.697a6.85 6.85 0 11.003-13.7 6.85 6.85 0 01-.003 13.7zm.995-5.892c-3.432 1.196-4.565 3.603-4.588 3.652a5.836 5.836 0 005.877.778 24.29 24.29 0 00-1.25-4.441l-.039.011zm.264-2.358a16.772 16.772 0 01.515 1.15c2.02-.254 4.01.177 4.074.192a5.825 5.825 0 00-1.33-3.656c-.012.018-.95 1.372-3.26 2.314zm.871 2.075a25.233 25.233 0 011.14 4.177 5.853 5.853 0 002.507-3.923c-.117-.037-1.755-.557-3.647-.254z" fill="#000"/></svg>