<svg width="14" height="14" fill="none" xmlns="http://www.w3.org/2000/svg"><path d="M5.613 6.574S6.93 6.47 6.93 4.864c0-1.608-1.077-2.394-2.44-2.394H0v8.986h4.49s2.739.09 2.739-2.653c0 0 .12-2.23-1.616-2.23zM1.978 4.068h2.51s.61 0 .61.936c0 .935-.359 1.07-.765 1.07H1.978V4.068zM4.361 9.86H1.978V7.458h2.51s.91-.012.91 1.234c0 1.051-.68 1.16-1.037 1.168zm6.522-5.102c-3.316 0-3.313 3.451-3.313 3.451s-.228 3.437 3.313 3.437c0 0 2.952.176 2.952-2.39h-1.518s.05.967-1.383.967c0 0-1.52.106-1.52-1.565h4.472s.488-3.9-3.003-3.9zm1.35 2.7H9.4s.185-1.384 1.518-1.384c1.33 0 1.315 1.384 1.315 1.384zM12.585 3H9.028v1.108h3.557V3z" fill="#000"/></svg>