<svg width="14" height="14" fill="none" xmlns="http://www.w3.org/2000/svg"><path d="M11.231 7a4.232 4.232 0 11-8.385-.814H0v5.625c0 1.208.98 2.187 2.187 2.187h9.624a2.188 2.188 0 002.187-2.187V6.186h-2.846c.052.263.08.535.08.813zm.58-7H2.187C.98 0 0 .98 0 2.187v2.37h3.544a4.225 4.225 0 013.454-1.79c1.428 0 2.69.707 3.455 1.79h3.545v-2.37A2.189 2.189 0 0011.811 0zm1.07 2.702a.393.393 0 01-.391.391h-1.173a.39.39 0 01-.39-.391V1.53a.39.39 0 01.39-.391h1.173c.214 0 .39.175.39.391v1.172zM9.602 6.999a2.604 2.604 0 10-5.208-.001 2.604 2.604 0 005.208.001z" fill="#000"/></svg>